<?xml version="1.0" encoding="utf-8"?>
<!-- Generator: Adobe Illustrator 16.0.0, SVG Export Plug-In . SVG Version: 6.00 Build 0)  -->
<!DOCTYPE svg PUBLIC "-//W3C//DTD SVG 1.1//EN" "http://www.w3.org/Graphics/SVG/1.1/DTD/svg11.dtd">
<svg version="1.1" id="Layer_1" xmlns="http://www.w3.org/2000/svg" xmlns:xlink="http://www.w3.org/1999/xlink" x="0px" y="0px"
	 width="300px" height="300px" viewBox="0 0 300 300" style="enable-background:new 0 0 300 300;" xml:space="preserve">
<style type="text/css">
<![CDATA[
	.st0{fill:#190A38;}
	.st1{fill:#070311;}
	.st2{fill:#090414;}
]]>
</style>
<g>
	<g>
		<g>
			<polygon class="st1" points="58.421,80.975 61.21,99.057 64.917,94.048 			"/>
			<polygon class="st1" points="146.428,177.229 143.846,159.136 139.12,163.202 			"/>
			<polygon class="st1" points="37.337,126.233 52.093,137.037 51.169,130.877 			"/>
			<polygon class="st1" points="167.637,132.064 153.021,121.086 152.548,127.305 			"/>
			<polygon class="st1" points="54.485,173.283 72.426,170.351 67.408,166.657 			"/>
			<polygon class="st1" points="150.724,85.292 132.52,87.712 136.572,92.446 			"/>
			<polygon class="st1" points="99.759,194.313 110.417,179.475 104.247,180.398 			"/>
			<polygon class="st1" points="105.579,64.03 94.467,78.555 100.678,79.034 			"/>
		</g>
		<path class="st0" d="M67.296,166.973c4.358,4.051,9.445,7.356,15.098,9.727l-0.613,14.247l17.978,3.367l4.615-13.548
			c6.063-0.23,11.929-1.479,17.374-3.636l9.583,10.421l15.097-10.321l-6.183-12.566c4.169-4.351,7.614-9.485,10.086-15.2
			l13.963,0.605l3.373-17.98l-13.025-4.428c-0.112-6.283-1.4-12.391-3.648-18.057l10.063-9.223l-10.332-15.088l-12.056,5.929
			c-4.48-4.315-9.767-7.862-15.691-10.374l0.593-13.435l-17.991-3.383l-4.297,12.655c-6.51,0.178-12.794,1.554-18.603,3.962
			l-9.163-9.994L58.421,80.975l6.069,12.316c-4.184,4.479-7.615,9.742-10.02,15.597l-13.727-0.608l-3.364,17.993l13.212,4.479
			c0.235,6.258,1.602,12.326,3.93,17.928l-10.373,9.513l10.336,15.091L67.296,166.973z M96.607,160.664
			c-17.634-3.304-29.252-20.273-25.947-37.922c3.299-17.627,20.282-29.25,37.923-25.942c17.631,3.317,29.251,20.288,25.947,37.927
			C131.223,152.365,114.239,163.98,96.607,160.664z"/>
		<path class="st0" d="M81.044,124.695c2.24-11.912,13.69-19.746,25.588-17.5c11.892,2.232,19.728,13.701,17.486,25.613
			c-2.232,11.898-13.69,19.731-25.589,17.502C86.647,148.061,78.803,136.594,81.044,124.695z"/>
	</g>
	<g>
		<g>
			<polygon class="st2" points="150.438,171.562 162.25,182.221 161.997,176.809 			"/>
			<polygon class="st2" points="262.663,188.123 250.982,177.342 250.03,182.679 			"/>
			<polygon class="st2" points="161.083,213.661 176.967,212.84 172.961,209.193 			"/>
			<polygon class="st2" points="252.153,146.018 236.265,146.645 239.363,151.096 			"/>
			<polygon class="st2" points="198.495,235.97 208.985,224.137 203.57,224.401 			"/>
			<polygon class="st2" points="215.054,123.771 204.105,135.4 209.439,136.369 			"/>
			<polygon class="st2" points="240.581,225.28 239.615,209.42 235.962,213.431 			"/>
			<polygon class="st2" points="172.928,134.234 173.415,150.13 177.864,147.043 			"/>
		</g>
		<path class="st0" d="M203.669,224.677c5.163,0.337,10.412-0.228,15.526-1.735l7.412,9.943l13.974-7.604l-4.331-11.67
			c3.961-3.486,7.231-7.551,9.717-11.997l12.188,1.763l4.509-15.253l-11.07-5.077c0.42-5.224-0.079-10.58-1.552-15.793l9.748-7.263
			l-7.603-13.973l-11.218,4.169c-3.526-4.176-7.75-7.586-12.377-10.171l1.718-11.746l-15.256-4.498l-4.874,10.621
			c-5.393-0.449-10.909,0.062-16.283,1.623l-6.979-9.383l-13.99,7.602l4.055,10.892c-4.294,3.696-7.775,8.076-10.366,12.888
			l-11.671-1.703l-4.508,15.251l10.859,4.972c-0.36,5.317,0.215,10.752,1.811,16.021l-9.59,7.13l7.617,13.981l11.366-4.24
			c3.599,4.093,7.854,7.435,12.5,9.934l-1.767,12.112l15.261,4.498L203.669,224.677z M219.97,204.322
			c-13.709,7.459-30.869,2.397-38.335-11.321c-7.461-13.697-2.391-30.863,11.319-38.323c13.713-7.447,30.875-2.387,38.335,11.32
			C238.75,179.708,233.682,196.871,219.97,204.322z"/>
		<path class="st0" d="M189.71,188.615c-5.034-9.262-1.617-20.837,7.642-25.857c9.248-5.027,20.831-1.599,25.863,7.665
			c5.033,9.249,1.611,20.825-7.638,25.858C206.323,201.293,194.734,197.87,189.71,188.615z"/>
	</g>
</g>
</svg>
