<?xml version="1.0" encoding="utf-8"?>
<!-- Generator: Adobe Illustrator 16.0.0, SVG Export Plug-In . SVG Version: 6.00 Build 0)  -->
<!DOCTYPE svg PUBLIC "-//W3C//DTD SVG 1.1//EN" "http://www.w3.org/Graphics/SVG/1.1/DTD/svg11.dtd">
<svg version="1.1" id="Layer_1" xmlns="http://www.w3.org/2000/svg" xmlns:xlink="http://www.w3.org/1999/xlink" x="0px" y="0px"
	 width="300px" height="300px" viewBox="0 0 300 300" style="enable-background:new 0 0 300 300;" xml:space="preserve">
<style type="text/css">
<![CDATA[
	.st0{fill:#190A38;}
]]>
</style>
<g>
	<g>
		<path class="st0" d="M188.057,265.605h-76.113c-3.861,0-6.991-3.13-6.991-6.99c0-3.861,3.13-6.99,6.991-6.99h76.113
			c3.86,0,6.99,3.129,6.99,6.99C195.047,262.476,191.917,265.605,188.057,265.605z"/>
	</g>
	<g>
		<path class="st0" d="M150,265.605c-3.861,0-6.99-3.13-6.99-6.99v-57.272c0-3.86,3.129-6.99,6.99-6.99c3.86,0,6.99,3.13,6.99,6.99
			v57.272C156.99,262.476,153.86,265.605,150,265.605z"/>
	</g>
	<g>
		<path class="st0" d="M150.38,204.166h-0.761c-17.498,0-33.948-6.813-46.321-19.188c-12.373-12.373-19.188-28.823-19.188-46.32
			c0-3.861,3.129-6.991,6.991-6.991c3.861,0,6.991,3.13,6.991,6.991c0,13.763,5.359,26.703,15.092,36.434
			c9.732,9.734,22.672,15.092,36.436,15.092h0.761c13.764,0,26.703-5.357,36.436-15.092c9.732-9.73,15.093-22.671,15.093-36.434
			c0-3.861,3.131-6.991,6.99-6.991c3.861,0,6.991,3.13,6.991,6.991c0,17.497-6.814,33.947-19.187,46.32
			C184.329,197.353,167.877,204.166,150.38,204.166z"/>
	</g>
	<path class="st0" d="M167.705,136.391v-8.927h20.35v-8.986h-20.35v-8.928h20.35v-8.986h-20.35v-8.928h20.352v-8.987h-20.352v-8.927
		h20.352v-1.65c0-20.808-16.869-37.677-37.677-37.677h-0.761c-20.809,0-37.676,16.869-37.676,37.677v1.65h20.35v8.927h-20.35v8.987
		h20.35v8.928h-20.35v8.986h20.35v8.928h-20.35v8.986h20.35v8.927h-20.35v2.268c0,20.806,16.867,37.675,37.676,37.675h0.761
		c20.808,0,37.675-16.869,37.675-37.675v-2.268H167.705z"/>
</g>
</svg>
