<?xml version="1.0" encoding="utf-8"?>
<!-- Generator: Adobe Illustrator 16.0.0, SVG Export Plug-In . SVG Version: 6.00 Build 0)  -->
<!DOCTYPE svg PUBLIC "-//W3C//DTD SVG 1.1//EN" "http://www.w3.org/Graphics/SVG/1.1/DTD/svg11.dtd">
<svg version="1.1" id="Layer_1" xmlns="http://www.w3.org/2000/svg" xmlns:xlink="http://www.w3.org/1999/xlink" x="0px" y="0px"
	 width="300px" height="300px" viewBox="0 0 300 300" style="enable-background:new 0 0 300 300;" xml:space="preserve">
<style type="text/css">
<![CDATA[
	.st0{fill:#190A38;}
]]>
</style>
<path class="st0" d="M256.877,225.735c2.198-1.322,2.882-3.849,2.882-8.112c0-114.946-5.317-173.65-9.15-173.65
	s-9.15,58.704-9.15,173.65c0,4.201,0.662,6.715,2.784,8.053c-3.07,2.034-5.16,5.844-4.546,11.813
	c0.836,8.11,7.344,10.623,9.382,18.539c6.557-1.691,12.44-10.09,12.44-18.539C261.519,231.561,259.683,227.778,256.877,225.735z
	 M130.724,68.395c-50.944,0-92.243,40.824-92.243,91.183s41.298,91.183,92.243,91.183c48.614,0,18.971-39.271,35.414-54.285
	c18.242-16.66,56.83,14.052,56.83-36.897C222.968,109.219,181.669,68.395,130.724,68.395z M130.724,86.741
	c9.136,0,16.542,7.405,16.541,16.54c0,9.135-7.405,16.54-16.541,16.54c-9.134,0-16.539-7.405-16.539-16.541
	C114.185,94.146,121.59,86.741,130.724,86.741z M90.24,202.05c-7.91,4.566-18.025,1.855-22.593-6.056
	c-4.568-7.91-1.857-18.025,6.054-22.595c7.91-4.566,18.027-1.856,22.594,6.056C100.863,187.366,98.152,197.48,90.24,202.05z
	 M96.295,139.699c-4.567,7.91-14.684,10.621-22.594,6.053c-7.912-4.566-10.622-14.683-6.054-22.593
	c4.568-7.911,14.683-10.622,22.595-6.054C98.152,121.672,100.863,131.787,96.295,139.699z M130.724,232.412
	c-9.134,0-16.539-7.404-16.539-16.539c0-9.136,7.405-16.54,16.539-16.54c9.136,0,16.541,7.404,16.541,16.54
	C147.265,225.008,139.86,232.412,130.724,232.412z M162.519,185.406c-6.595,3.686-14.055,2.89-16.665-1.777
	c-2.61-4.668,0.62-11.44,7.213-15.127c6.594-3.687,14.055-2.89,16.665,1.778C172.34,174.948,169.111,181.722,162.519,185.406z
	 M187.748,145.752c-7.91,4.568-18.027,1.857-22.594-6.053c-4.567-7.912-1.856-18.026,6.055-22.594
	c7.911-4.568,18.026-1.857,22.594,6.054C198.369,131.07,195.659,141.186,187.748,145.752z"/>
</svg>
