<?xml version="1.0" encoding="utf-8"?>
<!-- Generator: Adobe Illustrator 16.0.0, SVG Export Plug-In . SVG Version: 6.00 Build 0)  -->
<!DOCTYPE svg PUBLIC "-//W3C//DTD SVG 1.1//EN" "http://www.w3.org/Graphics/SVG/1.1/DTD/svg11.dtd">
<svg version="1.1" id="Layer_1" xmlns="http://www.w3.org/2000/svg" xmlns:xlink="http://www.w3.org/1999/xlink" x="0px" y="0px"
	 width="300px" height="300px" viewBox="0 0 300 300" style="enable-background:new 0 0 300 300;" xml:space="preserve">
<style type="text/css">
<![CDATA[
	.st0{display:none;fill:#FFFFFF;}
	.st1{fill:#E6E6E6;stroke:#190A38;stroke-width:5;stroke-linejoin:round;stroke-miterlimit:10;}
	.st2{fill:#190A38;}
	.st3{opacity:0.1;}
	.st4{fill:#FFFFFF;}
	.st5{fill:#E6E6E6;stroke:#190A38;stroke-width:5;stroke-miterlimit:10;}
]]>
</style>
<g>
	<g>
		<path class="st2" d="M71.724,149.341c-0.268-2.593-2.588-4.476-5.18-4.208l-22.745,2.353c-2.593,0.269-4.476,2.589-4.208,5.18
			l1.506,14.565c0.268,2.594,2.587,4.478,5.181,4.207l22.743-2.351c2.594-0.269,4.478-2.588,4.209-5.182L71.724,149.341z"/>
		<g>
			<path class="st5" d="M112.649,122.733l-55.276,5.722c-2.931,0.302-8.176,3.291-8.956,8.781
				c-0.307,2.16,2.282,39.639,2.282,39.639c0.641,6.192,6.512,10.469,12.702,9.829l55.276-5.72
				c6.19-0.641,10.869-6.011,10.229-12.202l-3.672-35.481C124.594,127.11,118.839,122.093,112.649,122.733z"/>
			<path class="st0" d="M56.107,129.679l-9.143,0.945c-1.961,2.565-3.104,5.636-3.032,8.581l13.021-1.348L56.107,129.679z"/>
		</g>
		<path class="st2" d="M109.256,252.483c-0.003-0.028,0.296-0.089,0.292-0.122l-6.207-59.978
			c-0.694-6.706-7.229-11.339-14.503-10.586l-5.268,0.545c-7.274,0.752-13.056,6.659-12.362,13.365l6.208,59.979
			c0.693,6.706,7.526,10.956,14.801,10.202l4.939-0.511l0.329-0.034l12.182-1.26c3.455-0.357,5.544-2.647,5.215-5.831l-0.062-0.608
			C114.521,254.772,112.287,252.613,109.256,252.483z"/>
		<path class="st2" d="M258.375,136.931c1.266,12.247-7.632,23.202-19.88,24.469c-12.244,1.266-23.198-7.633-24.464-19.878
			c-1.269-12.247,7.63-23.201,19.878-24.468C246.153,115.786,257.108,124.686,258.375,136.931z"/>
		<path class="st1" d="M219.066,43.898c0,0-12.941,67.809-109.876,77.84l6.45,62.324c0,0,118.399,4.521,123.259,51.466
			L219.066,43.898z"/>
		<path class="st4" d="M112.222,124.134l0.833,8.04c94.648-9.795,107.121-77.555,107.121-77.555l-0.832-8.041
			C219.343,46.578,206.868,114.338,112.222,124.134z"/>
		<path class="st2" d="M253.81,233.477c0.476,4.588-2.86,8.691-7.449,9.168l-0.326,0.034c-4.588,0.474-8.693-2.86-9.167-7.449
			L217.001,43.272c-0.476-4.588,2.859-8.693,7.448-9.167l0.325-0.034c4.591-0.475,8.694,2.86,9.168,7.449L253.81,233.477z"/>
		<path class="st2" d="M117.267,184.299c0.694,6.706-4.179,12.705-10.884,13.397l-30.053,3.11
			c-6.704,0.693-12.704-4.181-13.397-10.885l-6.616-63.937c-0.694-6.707,4.179-12.703,10.884-13.397l30.053-3.11
			c6.705-0.694,12.704,4.179,13.397,10.885L117.267,184.299z"/>
	</g>
	<path class="st3" d="M40.192,158.488l0.855,8.254c0.268,2.591,2.856,4.353,5.45,4.084l0.285-0.028l0.75,7.25
		c0.694,6.707,7.062,11.426,13.767,10.732l1.5-0.155l0.03,0.301c0.524,5.063,4.478,9.037,8.756,10.438l5.83,56.323
		c0.693,6.706,7.526,10.956,14.801,10.202l4.939-0.511l0.329-0.034l12.182-1.26c3.455-0.357,5.544-2.647,5.215-5.831l-0.062-0.608
		c-0.298-2.872-2.533-5.031-5.564-5.161c-0.003-0.028,0.296-0.089,0.292-0.122l-5.751-55.578l3.104-0.32
		c6.705-0.694,12.125-6.576,11.432-13.281l-0.012-0.118l0,0l0.005,0.042c0,0,115.645,4.807,120.502,51.751l0.042,0.405
		c0.474,4.589,4.45,7.937,9.039,7.463c4.59-0.478,7.794-4.565,7.319-9.156l-7.736-74.774c8.453-3.886,13.83-12.838,12.822-22.576
		c-0.017-0.156-0.069-0.503-0.074-0.501L40.192,158.488z"/>
</g>
</svg>
