<?xml version="1.0" encoding="utf-8"?>
<!-- Generator: Adobe Illustrator 16.0.0, SVG Export Plug-In . SVG Version: 6.00 Build 0)  -->
<!DOCTYPE svg PUBLIC "-//W3C//DTD SVG 1.1//EN" "http://www.w3.org/Graphics/SVG/1.1/DTD/svg11.dtd">
<svg version="1.1" id="Layer_1" xmlns="http://www.w3.org/2000/svg" xmlns:xlink="http://www.w3.org/1999/xlink" x="0px" y="0px"
	 width="300px" height="300px" viewBox="0 0 300 300" style="enable-background:new 0 0 300 300;" xml:space="preserve">
<style type="text/css">
<![CDATA[
	.st0{fill:#190A38;}
]]>
</style>
<g>
	<path class="st0" d="M231.76,197.41c35.871-29.452,41.072-82.432,11.612-118.293c-29.461-35.868-82.432-41.06-118.301-11.603
		c-33.532,27.544-40.245,75.632-16.9,111.088l-15.07,12.388c-3.061-1.981-6.053-2.891-8.333-2.444
		c-0.653,0.069-1.249,0.268-1.722,0.659l-0.296,0.244c-0.01,0.007-0.025,0.014-0.035,0.023c-0.011,0.007-0.02,0.019-0.028,0.027
		l-40.343,33.286c-5.614,4.612-6.44,12.985-1.825,18.607l4.424,5.372c4.611,5.622,12.984,6.445,18.597,1.834l40.708-33.591
		c0.525-0.429,0.848-1.02,1.037-1.708c0.809-2.141,0.48-5.189-0.837-8.5l15.063-12.392C149.75,222.195,198.22,224.96,231.76,197.41z
		 M96.657,200.594l17.292-14.195l3.546,3.77l-13.768,11.367C103.727,201.535,99.801,204.01,96.657,200.594z M127.34,174.418
		c-23.168-28.207-19.078-69.863,9.126-93.027c28.209-23.174,69.865-19.085,93.028,9.118c23.174,28.203,19.084,69.863-9.121,93.032
		C192.157,206.711,150.512,202.616,127.34,174.418z"/>
</g>
</svg>
