<?xml version="1.0" encoding="utf-8"?>
<!-- Generator: Adobe Illustrator 16.0.0, SVG Export Plug-In . SVG Version: 6.00 Build 0)  -->
<!DOCTYPE svg PUBLIC "-//W3C//DTD SVG 1.1//EN" "http://www.w3.org/Graphics/SVG/1.1/DTD/svg11.dtd">
<svg version="1.1" id="Layer_1" xmlns="http://www.w3.org/2000/svg" xmlns:xlink="http://www.w3.org/1999/xlink" x="0px" y="0px"
	 width="300px" height="300px" viewBox="0 0 300 300" style="enable-background:new 0 0 300 300;" xml:space="preserve">
<style type="text/css">
<![CDATA[
	.st0{fill:#190A38;}
]]>
</style>
<g>
	<path class="st0" d="M188.875,230.407c-3.824,1.717-7.767,3.221-11.839,4.43c3.917-3.518,7.565-7.332,10.957-11.381l-2.091-16.481
		c-7.913,11.88-18.078,21.981-30.128,29.456V191.38c10.043,0.599,19.783,2.776,28.958,6.373l-1.547-12.208
		c-8.79-2.881-17.983-4.637-27.411-5.144v-31.328h48.717c-0.402,8.937-1.796,17.634-4.074,25.938l9.66,7.952
		c3.427-10.75,5.489-22.131,5.974-33.891h28.953c-1.028,18.054-7.112,34.771-16.853,48.766l8.468,6.972
		c12.269-17.313,19.505-38.428,19.505-61.212c0-27.396-10.438-52.4-27.543-71.25l0.133-0.132l-3.907-3.881
		c-17.319-17.216-39.544-27.725-63.491-30.251c-0.179-0.018-0.354-0.047-0.533-0.064c-1.462-0.146-2.931-0.25-4.404-0.334
		c-0.329-0.022-0.656-0.058-0.987-0.072c-0.616-0.032-1.236-0.032-1.855-0.053c-2.377-0.189-4.824-0.321-7.346-0.353
		c-0.762-0.014-1.486,0.171-2.182,0.449c-0.13,0.007-0.258,0.021-0.387,0.029c-1.475,0.085-2.942,0.188-4.404,0.334
		c-0.178,0.018-0.354,0.047-0.532,0.064c-23.947,2.527-46.172,13.035-63.491,30.251l-3.907,3.881l0.131,0.132
		c-17.105,18.849-27.542,43.853-27.542,71.25c0,27.4,10.437,52.404,27.542,71.249l-0.131,0.133l3.907,3.885
		c17.319,17.212,39.544,27.721,63.491,30.248c0.178,0.018,0.354,0.046,0.532,0.063c1.462,0.146,2.93,0.25,4.404,0.339
		c0.129,0.007,0.257,0.021,0.387,0.028c0.676,0.268,1.381,0.445,2.11,0.445c0.022,0,0.048,0,0.071,0
		c2.521-0.032,4.969-0.163,7.346-0.353c0.619-0.021,1.239-0.021,1.855-0.05c0.331-0.018,0.658-0.054,0.987-0.071
		c1.474-0.089,2.942-0.193,4.404-0.339c0.179-0.018,0.354-0.046,0.533-0.063c10.051-1.06,19.793-3.544,29.004-7.325L188.875,230.407
		z M245.004,138.124h-28.953c-0.682-16.536-4.431-32.358-10.8-46.666c5.44-3.333,10.614-7.165,15.449-11.495
		C234.758,95.568,243.734,115.832,245.004,138.124z M212.898,72.26c-3.955,3.49-8.163,6.605-12.567,9.36
		c-6.175-11.042-14.027-20.938-23.295-29.26C190.463,56.345,202.654,63.217,212.898,72.26z M155.774,50.77
		c14.333,8.89,26.042,21.465,34.406,36.368c-10.725,5.005-22.353,7.963-34.406,8.683V50.77z M155.774,106.796
		c13.772-0.734,27.065-4.085,39.291-9.827c5.505,12.639,8.769,26.583,9.426,41.155h-48.717V106.796z M122.932,52.371
		c-9.267,8.316-17.115,18.2-23.287,29.235c-4.395-2.752-8.595-5.86-12.543-9.346C97.337,63.224,109.517,56.355,122.932,52.371z
		 M79.299,79.963c4.826,4.324,9.993,8.152,15.423,11.478c-6.358,14.297-10.097,30.123-10.773,46.683H54.996
		C56.266,115.832,65.241,95.568,79.299,79.963z M54.996,149.073H83.95c0.676,16.561,4.415,32.387,10.773,46.684
		c-5.431,3.329-10.597,7.154-15.423,11.477C65.241,191.629,56.266,171.369,54.996,149.073z M87.102,214.94
		c3.948-3.486,8.15-6.595,12.543-9.346c6.172,11.035,14.02,20.916,23.287,29.235C109.517,230.842,97.337,223.973,87.102,214.94z
		 M144.226,236.434c-14.351-8.893-26.07-21.45-34.433-36.36c10.73-5.008,22.369-7.974,34.433-8.693V236.434z M144.226,180.401
		c-13.782,0.737-27.084,4.092-39.315,9.841c-5.495-12.628-8.748-26.575-9.401-41.169h48.717V180.401z M144.226,138.124H95.509
		c0.654-14.593,3.907-28.537,9.401-41.166c12.231,5.749,25.533,9.104,39.315,9.838V138.124z M144.226,95.821
		c-12.063-0.72-23.702-3.686-34.435-8.694c8.364-14.91,20.084-27.471,34.435-36.36V95.821z"/>
	<polygon class="st0" points="243.245,219.717 189.239,175.265 198.041,244.657 213.946,235.882 228.793,262.793 242.188,255.404 
		227.341,228.492 	"/>
</g>
</svg>
