<?xml version="1.0" encoding="utf-8"?>
<!-- Generator: Adobe Illustrator 16.0.0, SVG Export Plug-In . SVG Version: 6.00 Build 0)  -->
<!DOCTYPE svg PUBLIC "-//W3C//DTD SVG 1.1//EN" "http://www.w3.org/Graphics/SVG/1.1/DTD/svg11.dtd">
<svg version="1.1" xmlns="http://www.w3.org/2000/svg" xmlns:xlink="http://www.w3.org/1999/xlink" x="0px" y="0px" width="300px"
	 height="300px" viewBox="0 0 300 300" style="enable-background:new 0 0 300 300;" xml:space="preserve">
<style type="text/css">
<![CDATA[
	.st0{clip-path:url(#SVGID_5_);fill:#190A38;}
	.st1{display:inline;fill:#190A38;}
	.st2{display:none;fill:#FFFFFF;}
	.st3{fill:#190A38;}
	.st4{filter:url(#Adobe_OpacityMaskFilter);}
	.st5{fill:#E6E6E6;stroke:#190A38;stroke-width:3;stroke-miterlimit:10;}
	.st6{fill:#261359;}
	.st7{fill:#2B1666;}
	.st8{mask:url(#SVGID_1_);fill:url(#SVGID_2_);}
	.st9{opacity:0.1;}
	.st10{fill:#FFFFFF;}
	.st11{display:inline;}
	.st12{display:none;opacity:0.48;fill:url(#SVGID_3_);}
	.st13{fill:#E6E6E6;stroke:#190A38;stroke-width:3;stroke-linejoin:round;stroke-miterlimit:10;}
	.st14{fill:#352366;}
	.st15{fill:#070311;}
	.st16{fill:#070411;}
	.st17{fill:#090414;}
	.st18{display:none;}
	.st19{fill:#0B051C;}
	.st20{filter:url(#Adobe_OpacityMaskFilter_1_);}
]]>
</style>
<g id="WEB">
	<g>
		<g>
			<g>
				<g>
					<polygon class="st3" points="173.821,238.28 171.553,217.854 149.18,211.018 149.18,210.721 148.694,210.869 148.208,210.721 
						148.208,211.018 125.836,217.854 123.566,238.28 115.137,240.225 115.137,247.034 148.208,247.034 149.18,247.034 
						182.252,247.034 182.252,240.225 					"/>
					<polygon class="st19" points="173.031,231.18 124.75,227.637 125.324,222.463 172.12,222.463 					"/>
					<polygon class="st16" points="115.137,242.58 115.137,247.034 182.252,247.034 182.252,245.872 115.137,240.225 					"/>
					<defs>
						<filter id="Adobe_OpacityMaskFilter" filterUnits="userSpaceOnUse" x="251.299" y="60.448" width="17.865" height="185.999">
							<feFlood  style="flood-color:white;flood-opacity:1" result="back"/>
							<feBlend  in="SourceGraphic" in2="back" mode="normal"/>
						</filter>
					</defs>
					<mask maskUnits="userSpaceOnUse" x="251.299" y="60.448" width="17.865" height="185.999" id="SVGID_1_">
						<g class="st4">
							<defs>
								
									<filter id="Adobe_OpacityMaskFilter_1_" filterUnits="userSpaceOnUse" x="251.299" y="60.448" width="17.865" height="185.999">
									<feFlood  style="flood-color:white;flood-opacity:1" result="back"/>
									<feBlend  in="SourceGraphic" in2="back" mode="normal"/>
								</filter>
							</defs>
							<mask maskUnits="userSpaceOnUse" x="251.299" y="60.448" width="17.865" height="185.999" id="SVGID_1_">
								<g class="st20">
								</g>
							</mask>
							
								<radialGradient id="SVGID_2_" cx="11658.1328" cy="74683.0469" r="128.9688" gradientTransform="matrix(-0.0693 0 -1.000000e-004 -0.7207 1075.6089 53977.5156)" gradientUnits="userSpaceOnUse">
								<stop  offset="0" style="stop-color:#FFFFFF"/>
								<stop  offset="0.1137" style="stop-color:#E9E9E9"/>
								<stop  offset="0.35" style="stop-color:#B2B2B2"/>
								<stop  offset="0.6853" style="stop-color:#595959"/>
								<stop  offset="1" style="stop-color:#000000"/>
							</radialGradient>
							<path class="st8" d="M251.299,153.43c0.006,51.36,4.008,93.006,8.94,93.017c4.935,0.009,8.931-41.625,8.925-92.984
								c-0.005-51.366-4.011-93.004-8.943-93.014C255.286,60.439,251.292,102.064,251.299,153.43z"/>
						</g>
					</mask>
					
						<radialGradient id="SVGID_3_" cx="11658.1328" cy="74683.0469" r="128.9688" gradientTransform="matrix(-0.0693 0 -1.000000e-004 -0.7207 1075.6089 53977.5156)" gradientUnits="userSpaceOnUse">
						<stop  offset="0" style="stop-color:#666666"/>
						<stop  offset="0.1923" style="stop-color:#7C7C7C"/>
						<stop  offset="0.5918" style="stop-color:#B3B3B3"/>
						<stop  offset="1" style="stop-color:#F2F2F2"/>
					</radialGradient>
					<path class="st12" d="M251.299,153.43c0.006,51.36,4.008,93.006,8.94,93.017c4.935,0.009,8.931-41.625,8.925-92.984
						c-0.005-51.366-4.011-93.004-8.943-93.014C255.286,60.439,251.292,102.064,251.299,153.43z"/>
					<path class="st3" d="M265.918,217.585c0,3.549-2.873,6.427-6.417,6.427H37.511c-3.544,0-6.417-2.878-6.417-6.427V60.942
						c0-3.549,2.874-6.428,6.417-6.428h221.99c3.544,0,6.417,2.878,6.417,6.428V217.585z"/>
				</g>
				<g>
					<path class="st10" d="M148.694,216.745c-4.198,0-7.615-3.416-7.615-7.615c0-4.198,3.417-7.613,7.615-7.613
						c4.199,0,7.614,3.415,7.614,7.613C156.309,213.329,152.894,216.745,148.694,216.745z M148.694,206.163
						c-1.637,0-2.968,1.33-2.968,2.967c0,1.638,1.332,2.97,2.968,2.97s2.969-1.332,2.969-2.97
						C151.663,207.493,150.331,206.163,148.694,206.163z"/>
				</g>
				<g>
					<g>
						<rect x="40.218" y="62.348" class="st10" width="216.434" height="123.461"/>
						<path class="st14" d="M247.271,71.73v104.697H49.601V71.73H247.271 M259.609,52.965H37.264c-3.55,0-6.428,3.128-6.428,6.986
							v135.24h235.199V59.952C266.035,56.094,263.159,52.965,259.609,52.965L259.609,52.965z"/>
					</g>
				</g>
			</g>
		</g>
	</g>
</g>
<g id="SEO" class="st18">
	<g class="st11">
		<path class="st3" d="M231.76,197.41c35.871-29.452,41.072-82.432,11.612-118.293c-29.461-35.868-82.432-41.06-118.301-11.603
			c-33.532,27.544-40.245,75.632-16.9,111.088l-15.07,12.388c-3.061-1.981-6.053-2.891-8.333-2.444
			c-0.653,0.069-1.249,0.268-1.722,0.659l-0.296,0.244c-0.01,0.007-0.025,0.014-0.035,0.023c-0.011,0.007-0.02,0.019-0.028,0.027
			l-40.343,33.286c-5.614,4.612-6.44,12.985-1.825,18.607l4.424,5.372c4.611,5.622,12.984,6.445,18.597,1.834l40.708-33.591
			c0.525-0.429,0.848-1.02,1.037-1.708c0.809-2.141,0.48-5.189-0.837-8.5l15.063-12.392C149.75,222.195,198.22,224.96,231.76,197.41
			z M96.657,200.594l17.292-14.195l3.546,3.77l-13.768,11.367C103.727,201.535,99.801,204.01,96.657,200.594z M127.34,174.418
			c-23.168-28.208-19.078-69.863,9.126-93.027c28.209-23.174,69.865-19.085,93.028,9.118c23.174,28.203,19.084,69.863-9.121,93.032
			C192.157,206.711,150.512,202.616,127.34,174.418z"/>
	</g>
</g>
<g id="BRANDING" class="st18">
	<g class="st11">
		<g>
			<g>
				<polygon class="st15" points="58.421,75.592 61.21,93.674 64.917,88.666 				"/>
				<polygon class="st15" points="146.428,171.847 143.846,153.753 139.12,157.819 				"/>
				<polygon class="st15" points="37.337,120.851 52.093,131.654 51.169,125.494 				"/>
				<polygon class="st15" points="167.637,126.681 153.021,115.703 152.548,121.922 				"/>
				<polygon class="st15" points="54.485,167.9 72.426,164.968 67.408,161.274 				"/>
				<polygon class="st15" points="150.724,79.91 132.52,82.329 136.572,87.063 				"/>
				<polygon class="st15" points="99.759,188.931 110.417,174.092 104.247,175.016 				"/>
				<polygon class="st15" points="105.579,58.647 94.467,73.172 100.678,73.651 				"/>
			</g>
			<path class="st3" d="M67.296,161.59c4.358,4.051,9.445,7.356,15.098,9.727l-0.613,14.247l17.978,3.367l4.615-13.548
				c6.063-0.23,11.929-1.479,17.374-3.636l9.583,10.421l15.097-10.321l-6.183-12.566c4.169-4.351,7.615-9.485,10.086-15.2
				l13.963,0.605l3.373-17.98l-13.025-4.427c-0.112-6.284-1.4-12.391-3.648-18.057l10.063-9.223L150.724,79.91l-12.056,5.929
				c-4.48-4.315-9.766-7.862-15.691-10.374l0.593-13.435l-17.991-3.383l-4.297,12.655c-6.51,0.178-12.794,1.554-18.603,3.962
				l-9.163-9.994L58.421,75.592l6.069,12.316c-4.184,4.479-7.615,9.742-10.02,15.597l-13.727-0.608l-3.364,17.993l13.212,4.479
				c0.235,6.258,1.602,12.327,3.93,17.929l-10.373,9.512L54.485,167.9L67.296,161.59z M96.607,155.281
				c-17.634-3.304-29.252-20.273-25.947-37.922c3.299-17.627,20.282-29.25,37.923-25.942c17.631,3.317,29.251,20.288,25.947,37.926
				C131.222,146.982,114.239,158.598,96.607,155.281z"/>
			<path class="st7" d="M94.872,164.517c22.738,4.255,44.628-10.711,48.886-33.443c4.271-22.724-10.716-44.616-33.44-48.894
				c-22.731-4.254-44.616,10.71-48.88,33.447C57.17,138.364,72.149,160.25,94.872,164.517z M72.073,117.621
				c3.165-16.843,19.394-27.946,36.236-24.781c16.868,3.158,27.974,19.381,24.794,36.229c-3.153,16.868-19.38,27.954-36.239,24.789
				C80.021,150.703,68.917,134.479,72.073,117.621z"/>
			<path class="st3" d="M81.044,119.313c2.24-11.912,13.69-19.747,25.588-17.5c11.892,2.231,19.728,13.701,17.486,25.613
				c-2.232,11.898-13.69,19.731-25.589,17.501C86.647,142.678,78.803,131.211,81.044,119.313z"/>
		</g>
		<g>
			<g>
				<polygon class="st17" points="150.437,166.179 162.25,176.838 161.997,171.426 				"/>
				<polygon class="st17" points="262.663,182.74 250.982,171.959 250.03,177.296 				"/>
				<polygon class="st17" points="161.083,208.278 176.967,207.457 172.961,203.811 				"/>
				<polygon class="st17" points="252.153,140.635 236.265,141.262 239.363,145.713 				"/>
				<polygon class="st17" points="198.495,230.587 208.985,218.754 203.57,219.019 				"/>
				<polygon class="st17" points="215.054,118.389 204.105,130.018 209.439,130.987 				"/>
				<polygon class="st17" points="240.581,219.897 239.615,204.037 235.962,208.048 				"/>
				<polygon class="st17" points="172.928,128.852 173.415,144.747 177.864,141.66 				"/>
			</g>
			<path class="st3" d="M203.669,219.294c5.163,0.337,10.412-0.228,15.526-1.735l7.412,9.943l13.974-7.604l-4.331-11.67
				c3.961-3.486,7.231-7.551,9.717-11.997l12.188,1.763l4.509-15.253l-11.07-5.077c0.42-5.224-0.079-10.58-1.552-15.793l9.748-7.263
				l-7.603-13.973l-11.218,4.169c-3.526-4.176-7.75-7.586-12.377-10.171l1.718-11.745l-15.256-4.499l-4.874,10.621
				c-5.393-0.449-10.909,0.062-16.283,1.624l-6.979-9.384l-13.99,7.603l4.055,10.891c-4.294,3.697-7.775,8.076-10.366,12.888
				l-11.671-1.704l-4.508,15.251l10.86,4.972c-0.36,5.317,0.215,10.752,1.811,16.021l-9.59,7.13l7.617,13.981l11.366-4.24
				c3.599,4.093,7.854,7.435,12.5,9.934l-1.767,12.112l15.261,4.498L203.669,219.294z M219.97,198.939
				c-13.709,7.459-30.869,2.397-38.335-11.321c-7.461-13.697-2.391-30.863,11.319-38.323c13.713-7.447,30.875-2.387,38.335,11.32
				C238.75,174.325,233.682,191.488,219.97,198.939z"/>
			<path class="st6" d="M223.874,206.12c17.67-9.624,24.206-31.739,14.59-49.409c-9.604-17.664-31.74-24.194-49.414-14.594
				c-17.664,9.615-24.203,31.728-14.588,49.4C184.077,209.193,206.204,215.726,223.874,206.12z M182.729,187.021
				c-7.118-13.098-2.273-29.499,10.822-36.617c13.111-7.136,29.516-2.297,36.624,10.809c7.141,13.106,2.291,29.497-10.814,36.625
				C206.266,204.962,189.863,200.121,182.729,187.021z"/>
			<path class="st3" d="M189.71,183.232c-5.034-9.262-1.617-20.837,7.642-25.857c9.248-5.027,20.831-1.599,25.863,7.665
				c5.033,9.249,1.611,20.825-7.638,25.858C206.323,195.91,194.734,192.487,189.71,183.232z"/>
		</g>
	</g>
</g>
<g id="MARKETING" class="st18">
	<g class="st11">
		<g>
			<path class="st3" d="M71.584,149.175c-0.268-2.593-2.588-4.476-5.18-4.208l-22.745,2.353c-2.593,0.269-4.476,2.588-4.208,5.18
				l1.506,14.565c0.268,2.594,2.587,4.478,5.181,4.207l22.743-2.351c2.594-0.269,4.478-2.588,4.209-5.182L71.584,149.175z"/>
			<g>
				<path class="st5" d="M112.51,122.567l-55.276,5.722c-2.931,0.302-8.176,3.291-8.956,8.781
					c-0.307,2.159,2.282,39.638,2.282,39.638c0.641,6.192,6.512,10.469,12.702,9.829l55.276-5.72
					c6.19-0.641,10.869-6.011,10.229-12.202l-3.672-35.481C124.455,126.944,118.699,121.927,112.51,122.567z"/>
				<path class="st2" d="M55.968,129.513l-9.143,0.945c-1.961,2.565-3.104,5.636-3.032,8.581l13.021-1.348L55.968,129.513z"/>
			</g>
			<path class="st3" d="M109.116,252.317c-0.003-0.028,0.296-0.089,0.292-0.122l-6.207-59.978
				c-0.694-6.706-7.229-11.339-14.503-10.586l-5.268,0.545c-7.274,0.752-13.056,6.659-12.362,13.365l6.208,59.979
				c0.693,6.706,7.526,10.956,14.801,10.202l4.939-0.511l0.329-0.034l12.182-1.26c3.455-0.357,5.544-2.647,5.215-5.831l-0.062-0.608
				C114.382,254.606,112.147,252.447,109.116,252.317z"/>
			<circle class="st3" cx="237.063" cy="139.06" r="22.29"/>
			<path class="st13" d="M218.927,43.732c0,0-12.744,67.789-108.708,77.719l6.45,62.324c0,0,117.231,4.642,122.09,51.587
				L218.927,43.732z"/>
			<path class="st10" d="M112.082,123.968l0.833,8.04c94.648-9.795,107.121-77.555,107.121-77.555l-0.832-8.041
				C219.203,46.412,206.729,114.172,112.082,123.968z"/>
			<path class="st3" d="M254.67,233.311c0.476,4.588-2.86,8.691-7.449,9.168l-0.326,0.034c-4.588,0.474-8.693-2.86-9.167-7.449
				L217.861,43.106c-0.476-4.588,2.859-8.693,7.448-9.167l0.325-0.034c4.591-0.475,8.694,2.86,9.168,7.449L254.67,233.311z"/>
			<path class="st3" d="M117.127,184.133c0.694,6.706-4.179,12.705-10.884,13.397l-30.053,3.11
				c-6.704,0.693-12.704-4.181-13.397-10.885l-6.616-63.937c-0.694-6.707,4.179-12.703,10.884-13.397l30.053-3.11
				c6.705-0.694,12.704,4.179,13.397,10.885L117.127,184.133z"/>
		</g>
		<path class="st9" d="M40.053,158.322l0.855,8.254c0.268,2.591,2.856,4.353,5.45,4.084l0.285-0.028l0.75,7.25
			c0.694,6.707,7.062,11.426,13.767,10.732l1.5-0.155l0.03,0.301c0.524,5.063,4.478,9.037,8.756,10.438l5.83,56.323
			c0.693,6.706,7.526,10.956,14.801,10.202l4.939-0.511l0.329-0.034l12.182-1.26c3.455-0.357,5.544-2.647,5.215-5.831l-0.062-0.608
			c-0.298-2.872-2.533-5.031-5.564-5.161c-0.003-0.028,0.296-0.089,0.292-0.122l-5.751-55.578l3.104-0.32
			c6.705-0.694,12.125-6.576,11.432-13.281l-0.012-0.118l0,0l0.005,0.042c0,0,115.645,4.807,120.502,51.751l0.042,0.405
			c0.474,4.589,4.45,7.937,9.039,7.463c4.59-0.478,7.794-4.565,7.319-9.156l-7.736-74.774c8.453-3.886,13.83-12.838,12.822-22.576
			c-0.017-0.156-0.069-0.503-0.074-0.501L40.053,158.322z"/>
	</g>
</g>
<g id="PATENTE" class="st18">
	<g class="st11">
		<path class="st3" d="M201.405,250.759H66.424V60.619h27.759V80.12h85.954V60.619h21.269v80.751l10.081-9.887V50.542h-31.35v-13.84
			h-26.11V46.78h-33.169V36.702H94.183v13.84H56.341v210.271h155.146v-66.753l-10.081,12.415V250.759z M201.405,250.759"/>
		<rect x="85.403" y="106.576" class="st3" width="103.513" height="7.545"/>
		<rect x="85.403" y="124.823" class="st3" width="103.513" height="7.545"/>
		<g>
			<defs>
				<rect id="SVGID_4_" x="56.341" y="36.702" width="187.318" height="226.596"/>
			</defs>
			<clipPath id="SVGID_5_">
				<use xlink:href="#SVGID_4_"  style="overflow:visible;"/>
			</clipPath>
			<rect x="85.403" y="143.801" class="st0" width="103.513" height="7.551"/>
			<path class="st0" d="M244.999,144.096l-16.228-15.49l-7.377,7.696l-3.614-3.467l-65.328,68.307l-0.541,2.188l-7.204,30.12
				l29.775-8.533l2.164-0.638L241.975,156l-4.353-4.182L244.999,144.096z M228.501,150.516l-59.256,61.959l-4.695-4.474
				l59.279-61.96L228.501,150.516z M217.929,140.408l3.958,3.789l-59.255,61.96l-3.959-3.786L217.929,140.408z M157.075,224.327
				l-3.812-3.64l3.146-13.055l13.573,12.981L157.075,224.327z M175.121,218.106l-3.958-3.761l59.281-61.984l3.957,3.785
				L175.121,218.106z M175.121,218.106"/>
		</g>
	</g>
</g>
<g id="DISEÑO" class="st18">
	<path class="st1" d="M256.877,225.735c2.198-1.322,2.882-3.849,2.882-8.112c0-114.947-5.317-173.651-9.15-173.651
		s-9.15,58.704-9.15,173.651c0,4.201,0.662,6.715,2.784,8.053c-3.07,2.034-5.16,5.844-4.546,11.813
		c0.836,8.11,7.344,10.623,9.382,18.539c6.557-1.691,12.44-10.09,12.44-18.539C261.519,231.561,259.683,227.778,256.877,225.735z
		 M130.724,68.394c-50.944,0-92.243,40.824-92.243,91.183c0,50.358,41.298,91.183,92.243,91.183
		c48.614,0,18.971-39.271,35.414-54.285c18.242-16.66,56.83,14.052,56.83-36.897C222.968,109.218,181.669,68.394,130.724,68.394z
		 M130.724,86.741c9.136,0,16.542,7.405,16.541,16.541c0,9.134-7.405,16.54-16.541,16.54c-9.134,0-16.539-7.406-16.539-16.541
		C114.185,94.146,121.59,86.741,130.724,86.741z M90.24,202.05c-7.91,4.566-18.025,1.855-22.593-6.056
		c-4.568-7.91-1.857-18.025,6.054-22.595c7.91-4.566,18.027-1.856,22.594,6.056C100.863,187.366,98.152,197.48,90.24,202.05z
		 M96.295,139.699c-4.567,7.91-14.684,10.621-22.594,6.053c-7.912-4.566-10.622-14.683-6.054-22.593
		c4.568-7.911,14.683-10.622,22.595-6.054C98.152,121.671,100.863,131.788,96.295,139.699z M130.724,232.412
		c-9.134,0-16.539-7.404-16.539-16.539c0-9.136,7.405-16.54,16.539-16.54c9.136,0,16.541,7.404,16.541,16.54
		C147.265,225.008,139.86,232.412,130.724,232.412z M162.519,185.406c-6.595,3.686-14.055,2.89-16.665-1.777
		c-2.61-4.668,0.62-11.44,7.213-15.127c6.594-3.687,14.055-2.89,16.665,1.778C172.34,174.948,169.111,181.722,162.519,185.406z
		 M187.748,145.752c-7.91,4.568-18.027,1.857-22.594-6.053c-4.567-7.912-1.856-18.026,6.055-22.594s18.026-1.857,22.594,6.054
		C198.369,131.07,195.659,141.186,187.748,145.752z"/>
</g>
<g id="SOCIAL" class="st18">
	<g class="st11">
		<path class="st3" d="M188.875,230.407c-3.824,1.717-7.767,3.221-11.839,4.43c3.917-3.518,7.565-7.332,10.957-11.381l-2.091-16.481
			c-7.913,11.88-18.078,21.981-30.128,29.456V191.38c10.043,0.599,19.783,2.776,28.958,6.373l-1.547-12.208
			c-8.79-2.881-17.983-4.637-27.411-5.144v-31.328h48.717c-0.402,8.937-1.796,17.634-4.074,25.938l9.66,7.952
			c3.427-10.75,5.489-22.131,5.974-33.891h28.953c-1.028,18.054-7.112,34.771-16.853,48.766l8.468,6.972
			c12.269-17.313,19.505-38.428,19.505-61.212c0-27.396-10.438-52.4-27.543-71.25l0.133-0.132l-3.907-3.881
			c-17.319-17.216-39.544-27.725-63.491-30.251c-0.179-0.018-0.354-0.047-0.533-0.064c-1.462-0.146-2.931-0.25-4.404-0.334
			c-0.329-0.022-0.656-0.058-0.987-0.072c-0.616-0.032-1.236-0.032-1.855-0.053c-2.377-0.189-4.824-0.321-7.346-0.353
			c-0.761-0.014-1.486,0.171-2.181,0.449c-0.13,0.007-0.258,0.021-0.387,0.029c-1.474,0.085-2.942,0.188-4.404,0.334
			c-0.178,0.018-0.355,0.047-0.533,0.064c-23.947,2.527-46.172,13.035-63.491,30.251l-3.907,3.881l0.131,0.132
			c-17.105,18.849-27.542,43.853-27.542,71.25c0,27.4,10.437,52.404,27.542,71.249l-0.131,0.133l3.907,3.885
			c17.319,17.212,39.544,27.721,63.491,30.248c0.178,0.018,0.354,0.046,0.533,0.063c1.461,0.146,2.93,0.25,4.404,0.339
			c0.129,0.007,0.257,0.021,0.387,0.028c0.675,0.268,1.381,0.445,2.11,0.445c0.023,0,0.048,0,0.071,0
			c2.522-0.032,4.969-0.163,7.346-0.353c0.619-0.021,1.239-0.021,1.855-0.05c0.331-0.018,0.658-0.054,0.987-0.071
			c1.474-0.089,2.942-0.193,4.404-0.339c0.179-0.018,0.354-0.046,0.533-0.063c10.051-1.06,19.793-3.544,29.004-7.325
			L188.875,230.407z M245.004,138.124h-28.953c-0.682-16.536-4.431-32.358-10.8-46.666c5.44-3.333,10.614-7.165,15.449-11.495
			C234.758,95.568,243.734,115.832,245.004,138.124z M212.898,72.26c-3.955,3.49-8.163,6.605-12.567,9.36
			c-6.175-11.042-14.027-20.938-23.295-29.26C190.463,56.345,202.654,63.217,212.898,72.26z M155.774,50.77
			c14.333,8.89,26.042,21.465,34.406,36.368c-10.725,5.005-22.353,7.963-34.406,8.683V50.77z M155.774,106.796
			c13.772-0.734,27.065-4.085,39.291-9.827c5.505,12.639,8.769,26.583,9.426,41.155h-48.717V106.796z M122.932,52.371
			c-9.267,8.316-17.115,18.2-23.287,29.235c-4.395-2.752-8.595-5.86-12.543-9.346C97.337,63.224,109.517,56.355,122.932,52.371z
			 M79.299,79.963c4.826,4.324,9.993,8.152,15.423,11.478c-6.358,14.297-10.097,30.123-10.773,46.683H54.996
			C56.266,115.832,65.241,95.568,79.299,79.963z M54.996,149.073H83.95c0.676,16.561,4.415,32.387,10.773,46.684
			c-5.431,3.329-10.597,7.154-15.423,11.477C65.241,191.629,56.266,171.369,54.996,149.073z M87.102,214.94
			c3.948-3.486,8.15-6.595,12.543-9.346c6.172,11.035,14.02,20.916,23.287,29.235C109.517,230.842,97.337,223.973,87.102,214.94z
			 M144.226,236.434c-14.351-8.893-26.07-21.45-34.433-36.36c10.73-5.008,22.369-7.974,34.433-8.693V236.434z M144.226,180.401
			c-13.782,0.737-27.084,4.092-39.315,9.841c-5.495-12.628-8.748-26.575-9.401-41.169h48.717V180.401z M144.226,138.124H95.509
			c0.654-14.593,3.907-28.537,9.401-41.166c12.231,5.749,25.533,9.104,39.315,9.838V138.124z M144.226,95.821
			c-12.064-0.72-23.702-3.686-34.435-8.694c8.364-14.91,20.084-27.471,34.435-36.36V95.821z"/>
		<polygon class="st3" points="243.245,219.717 189.239,175.265 198.041,244.657 213.946,235.882 228.793,262.793 242.188,255.404 
			227.341,228.492 		"/>
	</g>
</g>
<g id="CONVENCIONES" class="st18">
	<g class="st11">
		<g>
			<path class="st3" d="M188.057,265.605h-76.113c-3.861,0-6.991-3.13-6.991-6.99c0-3.861,3.13-6.99,6.991-6.99h76.113
				c3.86,0,6.99,3.129,6.99,6.99C195.047,262.476,191.917,265.605,188.057,265.605z"/>
		</g>
		<g>
			<path class="st3" d="M150,265.605c-3.861,0-6.991-3.13-6.991-6.99v-57.272c0-3.86,3.13-6.99,6.991-6.99
				c3.86,0,6.99,3.13,6.99,6.99v57.272C156.99,262.476,153.86,265.605,150,265.605z"/>
		</g>
		<g>
			<path class="st3" d="M150.38,204.166h-0.761c-17.498,0-33.948-6.813-46.321-19.188c-12.373-12.373-19.188-28.823-19.188-46.321
				c0-3.861,3.129-6.991,6.991-6.991c3.861,0,6.99,3.13,6.99,6.991c0,13.763,5.36,26.704,15.092,36.434
				c9.732,9.734,22.672,15.092,36.436,15.092h0.761c13.764,0,26.703-5.357,36.436-15.092c9.732-9.73,15.093-22.671,15.093-36.434
				c0-3.861,3.131-6.991,6.99-6.991c3.861,0,6.991,3.13,6.991,6.991c0,17.498-6.814,33.948-19.187,46.321
				C184.329,197.353,167.877,204.166,150.38,204.166z"/>
		</g>
		<path class="st3" d="M167.705,136.391v-8.927h20.35v-8.986h-20.35v-8.928h20.35v-8.986h-20.35v-8.928h20.352v-8.987h-20.352
			v-8.927h20.352v-1.65c0-20.808-16.869-37.677-37.677-37.677h-0.761c-20.808,0-37.676,16.869-37.676,37.677v1.65h20.35v8.927
			h-20.35v8.987h20.35v8.928h-20.35v8.986h20.35v8.928h-20.35v8.986h20.35v8.927h-20.35v2.267c0,20.806,16.868,37.675,37.676,37.675
			h0.761c20.808,0,37.675-16.869,37.675-37.675v-2.267H167.705z"/>
	</g>
</g>
</svg>
